P1
# feep.pbm
25 6
1111010010111001001011110
1000010010100101001010000
1110011110100101001011100
1000010010111001001010000
1000010010101001001010000
1111010010100100110011110
